<svg width="41" height="41" viewBox="0 0 41 41" fill="none" xmlns="http://www.w3.org/2000/svg">
<path d="M20.5 41C31.8218 41 41 31.8218 41 20.5C41 9.17816 31.8218 0 20.5 0C9.17816 0 0 9.17816 0 20.5C0 31.8218 9.17816 41 20.5 41Z" fill="#FF0000"/>
<path d="M34.1373 20.6954C34.1373 19.0336 32.7934 17.7138 31.1557 17.7138C30.382 17.7127 29.6379 18.0104 29.0785 18.5448C27.0256 17.0783 24.2148 16.1253 21.0867 16.0031L22.455 9.59992L26.9031 10.5528C26.9522 11.6771 27.8806 12.5815 29.0296 12.5815C30.2026 12.5815 31.1557 11.6286 31.1557 10.455C31.1557 9.28201 30.2028 8.32892 29.0296 8.32892C28.1987 8.32892 27.4652 8.81772 27.1231 9.52657L22.1621 8.47562C22.0154 8.45096 21.8687 8.47562 21.7708 8.54897C21.6486 8.62232 21.5755 8.74436 21.5513 8.89107L20.0356 16.0273C16.8585 16.1253 13.9989 17.0783 11.9217 18.5693C11.3622 18.0349 10.618 17.7373 9.84433 17.7384C8.18239 17.7384 6.8627 19.0823 6.8627 20.72C6.8627 21.9419 7.59574 22.9682 8.6225 23.4329C8.57264 23.7317 8.5481 24.0342 8.54915 24.3372C8.54915 28.9314 13.9016 32.6711 20.5002 32.6711C27.0989 32.6711 32.4513 28.9561 32.4513 24.3372C32.4512 24.0343 32.4266 23.7319 32.378 23.4329C33.4043 22.9682 34.1373 21.9172 34.1373 20.6954ZM13.6569 22.8215C13.6569 21.6485 14.6098 20.6954 15.7834 20.6954C16.9564 20.6954 17.9095 21.6483 17.9095 22.8215C17.9095 23.9946 16.9565 24.948 15.7834 24.948C14.6099 24.972 13.6569 23.9946 13.6569 22.8215ZM25.5592 28.4671C24.0928 29.9337 21.3066 30.0315 20.5002 30.0315C19.6693 30.0315 16.8832 29.909 15.4408 28.4671C15.2213 28.2472 15.2213 27.905 15.4408 27.6851C15.6609 27.4655 16.003 27.4655 16.223 27.6851C17.1519 28.614 19.1071 28.9314 20.5002 28.9314C21.8934 28.9314 23.8727 28.6138 24.777 27.6851C24.997 27.4655 25.3391 27.4655 25.5592 27.6851C25.7546 27.905 25.7546 28.2472 25.5592 28.4671ZM25.1679 24.9722C23.9948 24.9722 23.0418 24.0193 23.0418 22.8461C23.0418 21.673 23.9948 20.72 25.1679 20.72C26.3414 20.72 27.2943 21.673 27.2943 22.8461C27.2943 23.9944 26.3414 24.9722 25.1679 24.9722Z" fill="#FDB930"/>
</svg>
